<svg xmlns="http://www.w3.org/2000/svg" width="500" height="500" viewBox="0 0 500 500" shape-rendering="crispEdges">
<rect width="500" height="500" fill="#000000"/>
<rect x="266" y="46" width="105" height="21" fill="#949494"/>
<rect x="245" y="67" width="63" height="21" fill="#949494"/>
<rect x="308" y="67" width="126" height="21" fill="#FFFFFF"/>
<rect x="224" y="88" width="63" height="21" fill="#949494"/>
<rect x="287" y="88" width="126" height="21" fill="#FFFFFF"/>
<rect x="203" y="109" width="63" height="21" fill="#949494"/>
<rect x="266" y="109" width="105" height="21" fill="#FFFFFF"/>
<rect x="161" y="130" width="63" height="21" fill="#949494"/>
<rect x="224" y="130" width="84" height="21" fill="#FFFFFF"/>
<rect x="308" y="130" width="21" height="21" fill="#C0C0C0"/>
<rect x="329" y="130" width="21" height="21" fill="#FFFFFF"/>
<rect x="98" y="151" width="21" height="21" fill="#949494"/>
<rect x="119" y="151" width="168" height="21" fill="#FFFFFF"/>
<rect x="287" y="151" width="21" height="21" fill="#C0C0C0"/>
<rect x="308" y="151" width="21" height="21" fill="#FFFFFF"/>
<rect x="329" y="151" width="21" height="21" fill="#949494"/>
<rect x="77" y="172" width="42" height="21" fill="#949494"/>
<rect x="119" y="172" width="147" height="21" fill="#FFFFFF"/>
<rect x="266" y="172" width="21" height="21" fill="#C0C0C0"/>
<rect x="287" y="172" width="21" height="21" fill="#FFFFFF"/>
<rect x="308" y="172" width="21" height="21" fill="#949494"/>
<rect x="329" y="172" width="42" height="21" fill="#FFFFFF"/>
<rect x="77" y="193" width="21" height="21" fill="#FFFFFF"/>
<rect x="98" y="193" width="21" height="21" fill="#949494"/>
<rect x="119" y="193" width="42" height="21" fill="#FFFFFF"/>
<rect x="182" y="193" width="84" height="21" fill="#FFFFFF"/>
<rect x="266" y="193" width="42" height="21" fill="#949494"/>
<rect x="308" y="193" width="84" height="21" fill="#FFFFFF"/>
<rect x="392" y="193" width="21" height="21" fill="#C0C0C0"/>
<rect x="413" y="193" width="21" height="21" fill="#FFFFFF"/>
<rect x="77" y="214" width="21" height="21" fill="#C0C0C0"/>
<rect x="98" y="214" width="21" height="21" fill="#949494"/>
<rect x="140" y="214" width="42" height="21" fill="#FFFFFF"/>
<rect x="182" y="214" width="21" height="21" fill="#C0C0C0"/>
<rect x="203" y="214" width="126" height="21" fill="#FFFFFF"/>
<rect x="329" y="214" width="21" height="21" fill="#C0C0C0"/>
<rect x="350" y="214" width="21" height="21" fill="#FFFFFF"/>
<rect x="371" y="214" width="21" height="21" fill="#C0C0C0"/>
<rect x="392" y="214" width="21" height="21" fill="#FFFFFF"/>
<rect x="98" y="235" width="21" height="21" fill="#949494"/>
<rect x="119" y="235" width="42" height="21" fill="#C0C0C0"/>
<rect x="161" y="235" width="42" height="21" fill="#FFFFFF"/>
<rect x="203" y="235" width="21" height="21" fill="#C0C0C0"/>
<rect x="224" y="235" width="21" height="21" fill="#FFFFFF"/>
<rect x="245" y="235" width="21" height="21" fill="#C0C0C0"/>
<rect x="266" y="235" width="42" height="21" fill="#FFFFFF"/>
<rect x="308" y="235" width="21" height="21" fill="#C0C0C0"/>
<rect x="329" y="235" width="21" height="21" fill="#FFFFFF"/>
<rect x="350" y="235" width="21" height="21" fill="#C0C0C0"/>
<rect x="182" y="256" width="21" height="21" fill="#C0C0C0"/>
<rect x="203" y="256" width="21" height="21" fill="#FFFFFF"/>
<rect x="224" y="256" width="21" height="21" fill="#C0C0C0"/>
<rect x="245" y="256" width="63" height="21" fill="#FFFFFF"/>
<rect x="203" y="277" width="42" height="21" fill="#949494"/>
<rect x="245" y="277" width="42" height="21" fill="#FFFFFF"/>
<rect x="203" y="298" width="21" height="21" fill="#949494"/>
<rect x="245" y="298" width="21" height="21" fill="#FFFFFF"/>
<rect x="140" y="319" width="21" height="21" fill="#949494"/>
<rect x="161" y="319" width="84" height="21" fill="#FFFFFF"/>
<rect x="245" y="319" width="21" height="21" fill="#949494"/>
<rect x="266" y="319" width="42" height="21" fill="#FFFFFF"/>
<rect x="308" y="319" width="21" height="21" fill="#949494"/>
<rect x="140" y="340" width="21" height="21" fill="#FFFFFF"/>
<rect x="161" y="340" width="21" height="21" fill="#949494"/>
<rect x="182" y="340" width="105" height="21" fill="#FFFFFF"/>
<rect x="287" y="340" width="21" height="21" fill="#949494"/>
<rect x="308" y="340" width="21" height="21" fill="#FFFFFF"/>
<rect x="140" y="361" width="42" height="21" fill="#FFFFFF"/>
<rect x="182" y="361" width="21" height="21" fill="#949494"/>
<rect x="203" y="361" width="63" height="21" fill="#FFFFFF"/>
<rect x="266" y="361" width="21" height="21" fill="#949494"/>
<rect x="287" y="361" width="42" height="21" fill="#FFFFFF"/>
<rect x="140" y="382" width="63" height="21" fill="#FFFFFF"/>
<rect x="203" y="382" width="63" height="21" fill="#949494"/>
<rect x="266" y="382" width="63" height="21" fill="#FFFFFF"/>
<rect x="140" y="403" width="189" height="21" fill="#FFFFFF"/>
</svg>